<?xml version="1.0" standalone="no"?>
<!DOCTYPE svg PUBLIC "-//W3C//DTD SVG 20010904//EN"
 "http://www.w3.org/TR/2001/REC-SVG-20010904/DTD/svg10.dtd">
<svg version="1.0" xmlns="http://www.w3.org/2000/svg"
 width="400.000000pt" height="400.000000pt" viewBox="0 0 400.000000 400.000000"
 preserveAspectRatio="xMidYMid meet">
<metadata>
Created by potrace 1.14, written by Peter Selinger 2001-2017
</metadata>
<g transform="translate(0.000000,400.000000) scale(0.100000,-0.100000)"
fill="#000000" stroke="none">
<path d="M0 2000 l0 -2000 1101 0 1101 0 -6 73 c-16 176 -4 256 61 412 31 73
60 191 50 201 -6 7 -70 -1 -362 -46 -110 -17 -351 -53 -535 -81 -184 -27 -407
-61 -495 -74 -88 -13 -182 -27 -210 -31 -27 -3 -57 -8 -65 -9 -9 -2 -41 -6
-73 -10 l-57 -7 2 288 3 289 75 7 c90 8 315 58 388 87 115 46 174 107 193 203
5 29 12 63 15 75 2 13 0 23 -6 23 -5 0 -10 -8 -10 -18 0 -24 -31 -114 -37
-108 -2 2 -20 -10 -38 -28 -64 -63 -265 -100 -265 -50 0 8 -7 28 -15 43 -11
22 -26 32 -65 41 -52 13 -124 7 -146 -11 -11 -9 -28 -8 -72 6 -21 7 -22 11
-22 146 0 137 0 139 23 145 13 3 41 4 63 2 37 -3 39 -5 47 -43 32 -155 54
-203 108 -231 76 -39 288 -20 356 32 49 37 66 83 88 236 4 25 12 39 25 43 16
5 20 15 20 56 0 33 -4 49 -13 49 -9 0 -17 30 -25 94 -14 112 -43 195 -84 242
-69 78 -239 125 -442 123 l-111 -2 149 -8 c91 -5 169 -15 200 -25 133 -43 139
-46 122 -56 -19 -11 -39 -1 -30 14 4 6 1 9 -7 6 -8 -3 -28 1 -46 9 -40 16 -46
16 -37 1 4 -7 3 -8 -5 -4 -6 4 -9 12 -6 17 4 5 -11 8 -32 8 -22 -1 -29 -4 -16
-6 12 -2 27 -12 34 -21 11 -14 11 -15 -1 -4 -8 6 -21 12 -30 11 -13 0 -13 -2
2 -11 14 -11 13 -13 -10 -26 -38 -20 -112 -42 -147 -43 -24 -1 -26 -3 -7 -6
33 -6 115 13 176 42 29 14 62 25 73 25 21 0 87 -44 112 -73 7 -9 17 -15 21
-12 5 3 12 0 16 -6 4 -8 3 -9 -4 -5 -15 9 -15 1 -1 -26 11 -20 62 -249 57
-253 -2 -1 -43 2 -93 7 -60 6 -118 5 -175 -2 -83 -11 -188 -49 -211 -76 -8
-10 -36 -14 -89 -14 l-78 0 1 188 2 187 85 6 85 5 -82 2 -83 2 0 64 c0 63 1
65 28 69 25 4 25 4 -5 6 l-33 1 0 393 c0 409 -7 760 -16 788 -5 17 -86 57
-249 124 -109 45 -122 55 -70 55 22 0 119 5 215 10 443 24 823 42 1190 55 85
4 165 8 177 11 18 3 283 -59 541 -127 l42 -11 0 -268 0 -268 -58 -6 c-78 -8
-389 -32 -602 -46 -517 -34 -533 -36 -591 -69 -30 -16 -82 -38 -116 -47 l-63
-17 0 -278 0 -277 33 -7 c47 -10 128 -46 163 -72 17 -13 33 -23 35 -23 2 0 3
31 1 69 -3 51 0 72 12 83 8 9 12 19 8 22 -3 4 0 4 9 1 8 -3 32 1 52 10 20 8
47 15 59 15 20 -1 19 -3 -8 -14 -67 -30 -87 -115 -38 -161 62 -58 174 -13 174
68 0 38 -30 84 -64 97 -16 7 -17 9 -4 9 9 1 37 -8 62 -19 l46 -19 0 -58 c0
-31 -7 -76 -16 -100 -20 -52 -50 -64 -164 -66 -44 -1 -80 -5 -80 -8 0 -4 9
-27 21 -53 13 -31 22 -79 26 -137 5 -75 9 -92 25 -100 11 -6 17 -16 15 -23 -3
-7 8 -32 24 -55 38 -57 45 -100 27 -170 l-14 -58 31 -12 c36 -14 92 -58 83
-66 -3 -4 -20 1 -37 10 l-32 16 7 -26 c9 -36 -13 -32 -46 7 l-27 32 -42 -27
c-22 -15 -41 -35 -41 -45 0 -34 -47 -118 -84 -150 -21 -18 -67 -47 -102 -65
-35 -17 -64 -34 -64 -37 0 -6 130 9 385 44 158 22 283 38 335 42 25 2 178 22
340 45 249 34 298 43 317 60 14 14 28 19 42 14 15 -4 21 -3 19 7 -2 7 2 12 7
11 77 -11 165 -14 165 -4 0 8 7 7 23 -3 12 -8 65 -18 117 -24 52 -5 104 -13
114 -18 16 -6 18 -4 14 14 -4 12 -2 24 2 27 4 3 10 -19 12 -48 7 -90 -10 -502
-22 -548 -7 -24 -11 -46 -9 -48 2 -3 20 -4 39 -2 20 1 49 -3 65 -8 25 -9 27
-9 13 1 -9 7 -25 18 -35 24 -38 24 4 24 97 -1 15 -4 7 4 -20 20 -60 35 -61 38
-19 33 l35 -4 -1 151 c0 109 4 165 15 205 16 53 17 54 29 31 10 -17 11 -43 7
-90 -4 -36 -8 -138 -9 -226 l-2 -160 -37 1 c-21 1 -38 -1 -38 -3 0 -2 16 -11
35 -19 31 -12 35 -19 35 -49 0 -28 -5 -38 -25 -47 -23 -10 -23 -12 -7 -24 15
-11 15 -16 3 -51 -13 -39 -88 -116 -103 -107 -12 8 -63 -47 -75 -81 -11 -32
-51 -98 -77 -127 -9 -10 -16 -28 -16 -41 0 -13 -5 -28 -12 -35 -9 -9 133 -12
640 -12 l652 0 0 2000 0 2000 -2000 0 -2000 0 0 -2000z m298 1419 c157 -67
200 -89 176 -89 -11 0 -344 147 -352 155 -13 12 18 1 176 -66z m3116 -188
c109 -29 176 -62 231 -112 77 -71 120 -180 127 -319 l3 -65 -65 4 c-39 2 -88
13 -124 28 -49 20 -72 24 -149 22 -85 -2 -95 -4 -166 -42 -42 -23 -79 -46 -83
-51 -6 -8 -11 -6 -17 3 -7 11 -25 13 -75 9 -54 -5 -70 -2 -89 13 -13 10 -37
21 -53 25 -16 3 -34 12 -39 19 -16 20 -83 35 -153 35 -59 0 -62 1 -52 19 10
20 18 185 10 211 -8 24 -38 42 -59 35 -25 -8 -81 -71 -81 -90 0 -8 -4 -15 -10
-15 -5 0 -10 9 -10 21 0 60 78 149 148 170 34 10 59 8 156 -10 146 -27 296
-38 322 -23 17 10 15 11 -13 12 -39 0 -134 20 -148 30 -12 9 -163 30 -220 30
-69 0 -143 -28 -191 -72 -57 -52 -81 -92 -109 -181 -15 -48 -23 -63 -24 -45
-2 44 44 155 84 204 48 58 102 92 194 121 116 37 163 42 376 39 166 -3 213 -7
279 -25z m-3110 -22 c31 -25 28 -36 -5 -19 -21 12 -22 11 -15 -21 8 -40 -7
-28 -22 18 -16 48 -1 56 42 22z m-66 -214 c1 -31 -1 -35 -8 -20 -5 11 -8 40
-8 65 0 37 1 41 8 20 4 -14 8 -43 8 -65z m22 55 c0 -5 -2 -10 -4 -10 -3 0 -8
5 -11 10 -3 6 -1 10 4 10 6 0 11 -4 11 -10z m-40 -99 c13 -94 7 -121 -8 -39
-19 99 -24 144 -13 133 5 -5 15 -48 21 -94z m100 83 c0 -10 6 -14 15 -10 21 8
19 -8 -5 -29 -19 -18 -20 -17 -20 4 0 12 -4 20 -9 17 -5 -4 -7 3 -4 14 6 24
23 27 23 4z m-37 -35 c13 -9 0 -42 -13 -34 -5 3 -10 21 -9 38 0 18 3 25 6 17
3 -8 10 -18 16 -21z m89 -11 c-8 -8 -9 -4 -5 13 4 13 8 18 11 10 2 -7 -1 -18
-6 -23z m-27 -60 c-5 -41 7 -80 20 -66 4 3 10 28 15 55 l8 48 1 -40 c1 -46
-14 -120 -31 -152 -14 -29 -41 -37 -69 -23 -17 10 -23 9 -30 -1 -6 -9 -9 -1
-9 24 0 44 10 46 55 11 35 -26 38 -25 49 18 7 30 -3 43 -64 81 -22 14 -36 32
-38 47 -3 25 -3 25 21 -4 26 -32 47 -29 47 8 0 24 7 36 22 36 5 0 7 -19 3 -42z
m25 -23 c0 -8 -4 -15 -10 -15 -5 0 -10 7 -10 15 0 8 5 15 10 15 6 0 10 -7 10
-15z m-44 -76 c3 -5 0 -9 -6 -9 -6 0 -8 -5 -4 -11 5 -8 1 -8 -14 0 -21 11 -52
49 -52 63 0 9 67 -30 76 -43z m1554 -57 c89 -68 120 -138 127 -294 3 -60 3
-108 0 -108 -4 0 -21 9 -39 20 -20 12 -50 20 -78 20 -51 -1 -120 -15 -129 -27
-3 -4 -26 -22 -51 -39 -41 -27 -53 -30 -108 -28 -35 1 -69 8 -77 14 -8 7 -20
8 -26 4 -8 -4 -9 -3 -5 4 4 7 1 12 -9 12 -9 0 -29 10 -45 21 -27 20 -37 21
-145 17 -65 -3 -113 -3 -109 1 5 3 9 25 10 48 1 61 30 128 69 157 40 31 125
55 220 62 169 12 272 35 291 65 4 6 -1 16 -10 21 -21 12 -20 20 5 47 26 27 57
22 109 -17z m1472 -62 c-40 -25 -38 -47 4 -40 52 9 158 4 195 -8 33 -12 37
-16 36 -47 -1 -31 -2 -32 -15 -14 -34 49 -129 65 -175 29 -30 -24 -51 -81 -43
-114 23 -94 150 -121 208 -45 37 48 132 149 140 149 18 0 7 -126 -15 -179 -32
-78 -61 -91 -206 -91 -151 0 -192 17 -228 97 -29 64 -36 174 -14 216 16 30 83
67 121 67 24 0 24 -1 -8 -20z m269 10 c20 -6 43 -17 50 -26 10 -12 9 -19 -10
-37 l-22 -22 -32 37 c-18 21 -43 42 -57 47 -25 10 -25 10 5 10 17 1 46 -4 66
-9z m-659 -22 c13 -13 19 -20 14 -15 -6 4 -19 7 -30 7 -12 0 -30 7 -40 15 -19
14 -19 15 7 15 14 0 36 -10 49 -22z m-442 -8 c0 -5 -4 -10 -10 -10 -5 0 -10 5
-10 10 0 6 5 10 10 10 6 0 10 -4 10 -10z m1240 0 c0 -5 -7 -10 -15 -10 -8 0
-15 5 -15 10 0 6 7 10 15 10 8 0 15 -4 15 -10z m-1290 -60 c0 -5 -10 -10 -22
-10 -19 0 -20 2 -8 10 19 13 30 13 30 0z m1362 -30 c21 -41 23 -115 6 -173
-14 -45 -61 -97 -88 -97 -15 0 -20 -11 -26 -57 -9 -75 -37 -135 -74 -156 -28
-17 -36 -17 -122 -3 -138 23 -184 26 -223 15 -30 -8 -42 -7 -63 7 -16 11 -60
20 -114 25 -90 9 -147 30 -181 67 -18 20 -18 20 25 10 42 -10 200 -5 287 8
l43 7 -13 -24 c-8 -13 -14 -32 -15 -41 -1 -14 2 -14 18 -5 15 10 21 9 28 -3 8
-13 11 -13 19 -1 5 7 13 11 19 7 5 -3 12 8 15 24 5 24 13 30 44 36 39 7 103
41 103 54 0 4 22 11 49 15 55 7 103 33 126 68 22 35 55 154 55 203 0 48 6 56
40 52 17 -2 30 -14 42 -38z m-958 4 c3 -8 2 -12 -4 -9 -6 3 -10 -3 -10 -15 0
-28 -24 -21 -28 8 -3 16 1 20 12 16 9 -3 16 -1 16 5 0 16 7 14 14 -5z m676 -3
c5 -11 10 -24 10 -30 0 -15 -33 -14 -48 1 -7 7 -12 20 -12 30 0 24 36 23 50
-1z m-3264 -27 c19 -15 19 -15 -1 -6 -11 5 -26 7 -34 4 -8 -3 -11 0 -7 7 10
15 19 14 42 -5z m2790 -48 c24 -25 28 -73 9 -103 -38 -58 -81 -91 -129 -98
-56 -9 -100 -42 -123 -94 -15 -35 -16 -36 -23 -11 -5 20 0 32 29 60 20 20 58
47 84 60 59 31 92 71 114 144 9 31 19 56 21 56 2 0 10 -6 18 -14z m-2801 -36
c16 -16 37 -30 46 -30 21 0 33 -48 27 -109 -2 -22 0 -37 4 -35 5 3 8 -12 8
-33 l0 -38 -18 23 c-15 19 -20 21 -29 10 -6 -7 -13 -22 -15 -33 -3 -17 -6 -16
-21 12 -9 18 -17 41 -17 52 0 12 -9 26 -20 33 -16 11 -20 24 -20 73 0 64 8
105 19 105 4 0 20 -13 36 -30z m2600 -45 c-8 -80 -31 -95 -147 -95 -50 0 -59
7 -64 50 -4 34 11 41 62 30 45 -10 108 8 132 39 10 11 18 21 19 21 1 0 0 -20
-2 -45z m274 -37 c34 -66 31 -85 -12 -69 -25 10 -27 15 -27 71 0 33 2 60 4 60
2 0 18 -28 35 -62z m92 -15 c13 -16 12 -17 -3 -4 -17 13 -22 21 -14 21 2 0 10
-8 17 -17z m-1146 -31 c-7 -8 -35 7 -35 18 0 6 7 6 20 -2 10 -7 17 -14 15 -16z
m-89 -16 c1 -1 -1 -63 -3 -138 l-6 -137 -49 -10 c-27 -6 -78 -11 -114 -11 -55
0 -69 4 -89 24 -51 51 -59 184 -15 231 24 26 51 36 31 12 -16 -21 -4 -26 37
-16 58 13 70 10 36 -10 -58 -35 -68 -109 -22 -158 25 -27 57 -29 98 -8 17 9
30 17 30 18 0 1 8 25 19 53 15 43 16 54 5 69 -12 15 -11 20 3 30 16 12 16 14
0 39 l-18 27 28 -7 c15 -4 29 -7 29 -8z m104 -26 c0 -5 -4 -10 -10 -10 -5 0
-10 5 -10 10 0 6 5 10 10 10 6 0 10 -4 10 -10z m997 -52 c-3 -7 -5 -2 -5 12 0
14 2 19 5 13 2 -7 2 -19 0 -25z m-2875 -28 c-5 -58 4 -93 18 -70 8 12 10 11
10 -5 0 -11 -4 -26 -9 -33 -6 -10 -11 -5 -20 19 -13 37 -15 139 -2 139 4 0 6
-22 3 -50z m888 40 c0 -5 -7 -10 -15 -10 -8 0 -15 5 -15 10 0 6 7 10 15 10 8
0 15 -4 15 -10z m778 -12 c-3 -7 -11 -13 -18 -13 -7 0 -15 6 -17 13 -3 7 4 12
17 12 13 0 20 -5 18 -12z m-524 -58 c-14 -14 -39 14 -29 31 5 8 12 6 23 -5 11
-11 13 -19 6 -26z m-1034 -9 c5 -11 10 -26 9 -33 0 -7 -5 -2 -11 12 -10 24
-10 24 -18 5 -8 -18 -9 -17 -9 8 -1 31 14 36 29 8z m1254 -3 c8 -13 22 -49 30
-82 9 -32 20 -64 26 -71 12 -14 3 -25 -21 -25 -13 0 -20 11 -25 35 -5 30 -9
34 -21 23 -8 -6 -21 -24 -29 -39 -13 -26 -12 -28 9 -35 37 -11 51 -44 18 -44
-10 0 -21 8 -23 18 -4 14 -17 18 -61 20 -50 2 -60 -1 -91 -28 -19 -17 -38 -40
-41 -51 -5 -14 -16 -19 -45 -19 -41 0 -54 9 -45 32 6 15 41 32 137 68 73 27
111 71 134 156 9 35 21 64 25 64 5 0 15 -10 23 -22z m-77 -10 c-3 -8 -6 -5 -6
6 -1 11 2 17 5 13 3 -3 4 -12 1 -19z m-1220 -54 c3 -51 2 -54 -13 -39 -13 12
-15 26 -9 61 8 58 18 49 22 -22z m80 -61 c-2 -16 -4 -5 -4 22 0 28 2 40 4 28
2 -13 2 -35 0 -50z m1342 -17 c15 -18 15 -18 -5 -8 -12 7 -27 26 -33 43 -15
44 -13 50 6 14 8 -16 23 -39 32 -49z m-1369 -3 c0 -33 -16 -28 -29 8 -14 41
-14 41 9 27 11 -7 20 -23 20 -35z m-50 -32 c0 -9 -12 -1 -30 19 -38 45 -38 55
0 22 17 -15 30 -33 30 -41z m787 42 c10 -10 14 -15 9 -10 -21 15 -28 6 -11
-13 10 -11 13 -20 8 -20 -6 0 -14 7 -17 16 -3 8 -10 13 -15 10 -5 -3 -14 0
-20 8 -9 11 -9 15 1 19 21 9 25 8 45 -10z m897 -60 c-20 -83 -51 -110 -134
-116 -36 -2 -76 -7 -90 -12 -14 -4 -54 -11 -89 -15 -64 -8 -96 -2 -151 27 -14
7 -30 13 -36 13 -6 0 -17 6 -24 14 -6 8 -18 12 -26 9 -15 -6 -17 -2 -8 20 4
12 12 13 41 5 35 -9 180 2 242 18 21 6 22 4 16 -16 -6 -19 -4 -21 15 -15 15 5
20 4 16 -4 -4 -6 0 -11 9 -11 9 0 21 13 26 30 8 20 18 30 32 31 12 0 45 11 72
24 28 13 60 24 73 25 19 0 22 -4 16 -27z m-1656 -8 c-3 -3 -9 2 -12 12 -6 14
-5 15 5 6 7 -7 10 -15 7 -18z m832 -43 c0 -10 -4 -10 -15 2 -8 8 -15 23 -15
32 0 16 1 16 15 -2 8 -10 15 -25 15 -32z m1810 43 c0 -3 -31 -20 -69 -40 -76
-38 -103 -68 -141 -155 -29 -65 -28 -65 -35 -58 -12 11 76 175 105 196 41 30
140 71 140 57z m-2656 -75 c-1 -3 2 -29 6 -59 8 -61 -7 -151 -25 -151 -6 0
-17 10 -23 23 -14 29 -24 157 -16 207 l7 40 26 -28 c15 -15 26 -29 25 -32z
m3007 49 c61 -19 105 -63 144 -146 20 -41 34 -81 31 -88 -3 -8 4 -39 15 -69
10 -31 19 -75 19 -98 0 -52 -34 -113 -74 -133 -27 -14 -28 -14 -23 5 6 23 -21
35 -54 25 -19 -6 -20 -4 -14 27 4 18 15 45 25 59 18 26 18 27 -7 78 -14 28
-29 51 -33 51 -11 0 -16 -69 -12 -162 3 -67 6 -78 21 -78 19 0 41 -21 61 -59
11 -21 8 -29 -20 -69 l-32 -46 6 -221 c4 -121 12 -263 18 -315 7 -52 11 -99
10 -103 -1 -4 8 -3 20 4 23 12 23 12 4 -10 -21 -24 -25 -16 47 -93 38 -42 39
-105 1 -114 -54 -14 -134 11 -119 37 3 3 -8 19 -22 35 -15 16 -26 34 -25 40 1
7 -7 14 -19 17 -15 4 -20 11 -15 22 3 9 2 13 -4 10 -6 -3 -10 0 -10 8 0 8 14
20 32 28 17 7 26 15 20 17 -18 6 -14 22 6 22 14 0 13 3 -6 18 -20 16 -21 20
-9 30 22 19 30 204 12 266 -20 67 -20 175 0 182 25 10 17 23 -17 26 l-33 3 40
19 c31 15 36 20 21 24 -13 3 -15 6 -7 11 8 5 -2 17 -29 35 -47 31 -53 43 -10
21 16 -8 35 -15 42 -15 7 0 -6 9 -28 21 -52 25 -83 57 -67 67 7 4 -29 8 -80 8
-100 -1 -130 10 -180 60 -35 35 -28 42 16 15 46 -28 56 -27 23 4 -30 28 -33
50 -9 64 16 8 16 16 6 75 -6 36 -19 80 -28 98 -9 18 -20 55 -25 81 -18 90 29
134 171 161 54 10 90 23 103 36 23 23 43 25 97 9z m-1648 -171 c18 -28 42
-103 58 -182 10 -45 10 -71 1 -114 -9 -40 -9 -59 -1 -69 9 -10 7 -13 -10 -13
-14 0 -21 6 -21 20 0 20 -9 24 -43 20 -16 -1 -18 6 -15 59 1 36 -2 65 -9 72
-18 18 -26 -44 -12 -105 10 -45 16 -55 31 -53 11 1 26 -7 34 -18 12 -18 11
-25 -4 -55 -13 -28 -24 -36 -49 -38 -25 -2 -33 1 -33 12 0 9 -4 16 -10 16 -5
0 -10 7 -10 16 0 12 -5 14 -17 9 -10 -5 -47 -10 -83 -12 -63 -5 -66 -4 -107
32 -41 35 -59 73 -30 62 24 -9 50 49 42 93 -4 22 -11 42 -16 46 -5 3 -9 13 -9
22 0 9 -6 29 -14 44 -8 15 -12 35 -10 45 6 21 83 61 134 69 19 4 44 12 56 19
19 12 52 19 111 23 14 1 28 -7 36 -20z m-546 -142 c31 -36 38 -85 24 -169 -21
-127 -59 -161 -202 -177 -92 -11 -163 -4 -197 17 -13 8 -33 35 -44 60 -25 56
-34 179 -16 212 16 30 54 58 92 67 28 7 28 7 12 -18 -9 -13 -14 -27 -11 -30 3
-2 36 2 75 10 60 12 80 12 140 0 72 -15 83 -10 57 23 -7 8 -21 21 -32 28 -17
10 -13 12 30 8 37 -4 55 -11 72 -31z m63 4 c0 -5 -5 -10 -11 -10 -5 0 -7 5 -4
10 3 6 8 10 11 10 2 0 4 -4 4 -10z m1627 -114 c10 -13 27 -42 37 -65 12 -25
26 -41 36 -41 19 0 130 -78 130 -92 0 -13 -11 -9 -46 17 -31 24 -64 33 -64 18
1 -5 7 -19 15 -33 33 -58 9 -54 -30 5 -16 25 -36 45 -43 45 -11 0 -82 139 -82
161 0 18 29 8 47 -15z m-2543 -137 c-3 -5 0 -9 5 -9 6 0 11 -4 11 -10 0 -5 -7
-7 -16 -3 -8 3 -13 12 -10 19 3 8 1 14 -4 14 -12 0 -23 37 -14 51 4 7 12 -1
20 -21 8 -18 11 -36 8 -41z m46 -29 c0 -5 -2 -10 -4 -10 -3 0 -8 5 -11 10 -3
6 -1 10 4 10 6 0 11 -4 11 -10z m20 -79 c0 -19 -3 -22 -9 -12 -5 8 -7 20 -4
27 2 6 0 15 -6 19 -6 3 -11 12 -11 18 1 24 30 -28 30 -52z m1295 -51 c-27 -12
-43 -12 -25 0 8 5 22 9 30 9 10 0 8 -3 -5 -9z m-855 -29 c0 -5 -16 -25 -35
-44 -38 -38 -91 -55 -180 -60 l-50 -2 -3 37 -3 37 48 6 c26 4 77 12 113 20 80
16 110 18 110 6z m157 -83 c-3 -7 -5 -2 -5 12 0 14 2 19 5 13 2 -7 2 -19 0
-25z m2181 0 c0 -7 5 -60 11 -118 12 -119 19 -523 9 -488 -3 13 -6 18 -7 11
-1 -16 -73 -11 -79 6 -2 7 1 16 7 20 8 5 12 81 15 237 5 254 13 344 31 344 6
0 12 -6 13 -12z m-2988 -120 c0 -65 -4 -98 -9 -89 -7 11 -10 9 -14 -10 -2 -13
-5 27 -6 89 -1 93 1 112 14 112 12 0 15 -18 15 -102z m3267 -115 c-2 -16 -4
-5 -4 22 0 28 2 40 4 28 2 -13 2 -35 0 -50z m30 -60 c-3 -10 -5 -4 -5 12 0 17
2 24 5 18 2 -7 2 -21 0 -30z m-20 -115 c-3 -8 -6 -5 -6 6 -1 11 2 17 5 13 3
-3 4 -12 1 -19z m83 -346 c0 -57 -81 -88 -94 -36 -8 30 -8 30 24 43 41 16 70
13 70 -7z"/>
<path d="M900 1603 c-24 -9 -51 -36 -67 -66 -32 -62 18 -137 92 -137 54 0 91
28 106 80 25 83 -49 153 -131 123z m6 -90 c-10 -10 -19 5 -10 18 6 11 8 11 12
0 2 -7 1 -15 -2 -18z"/>
<path d="M1160 3540 c0 -5 5 -10 10 -10 6 0 10 5 10 10 0 6 -4 10 -10 10 -5 0
-10 -4 -10 -10z"/>
<path d="M840 3461 c0 -5 7 -11 14 -14 10 -4 13 -1 9 9 -6 15 -23 19 -23 5z"/>
<path d="M1005 3453 c-22 -3 -44 -9 -50 -15 -7 -7 5 -9 39 -4 27 3 55 6 63 6
8 0 11 5 8 10 -3 6 -9 9 -13 8 -4 -1 -25 -3 -47 -5z"/>
<path d="M1168 3453 c6 -2 18 -2 25 0 6 3 1 5 -13 5 -14 0 -19 -2 -12 -5z"/>
<path d="M1223 3453 c9 -2 25 -2 35 0 9 3 1 5 -18 5 -19 0 -27 -2 -17 -5z"/>
<path d="M1335 3449 c38 -6 63 -5 69 1 7 7 -14 10 -59 9 l-70 -1 60 -9z"/>
<path d="M1030 3422 c0 -5 14 -7 30 -4 17 2 30 6 30 8 0 2 -13 4 -30 4 -16 0
-30 -4 -30 -8z"/>
<path d="M1373 3423 c9 -2 23 -2 30 0 6 3 -1 5 -18 5 -16 0 -22 -2 -12 -5z"/>
<path d="M2182 3307 c15 -12 34 -38 42 -57 l15 -35 1 58 0 57 -42 0 -43 0 27
-23z"/>
<path d="M1800 3309 c-367 -26 -753 -41 -823 -31 -73 11 -164 4 -221 -17 -13
-5 -56 -13 -95 -17 -66 -6 -71 -8 -71 -30 0 -13 -8 -28 -17 -33 -49 -28 -49
-28 -24 -55 18 -20 21 -28 12 -44 -18 -33 -13 -122 9 -171 19 -40 20 -66 20
-377 l0 -335 106 3 106 3 -1 277 -2 277 53 4 53 3 -56 2 c-55 2 -56 2 -90 -44
l-34 -46 -3 60 c-3 56 -5 61 -33 73 -94 38 -154 172 -119 265 16 42 34 14 54
-87 10 -47 21 -91 25 -97 4 -7 23 1 54 21 35 23 46 35 41 49 -7 22 0 23 31 2
16 -10 34 -14 51 -10 17 5 30 2 38 -7 8 -11 21 -12 53 -5 35 8 44 14 49 36 3
15 8 34 10 42 2 8 24 24 49 36 51 24 60 12 25 -33 -24 -31 -26 -56 -5 -73 34
-29 95 32 73 73 -5 11 -5 17 1 17 6 0 20 19 32 43 l22 42 14 -34 c20 -47 8
-118 -28 -178 l-30 -48 33 37 33 37 270 20 c149 11 326 23 395 27 109 6 137 8
160 14 3 0 -7 8 -22 16 -84 45 -89 230 -7 288 23 16 22 16 -31 15 -30 -1 -102
-5 -160 -10z m-747 -67 c26 -11 47 -26 47 -32 0 -6 -10 -4 -25 6 -27 18 -129
30 -169 20 -22 -5 -24 -9 -16 -31 9 -24 8 -25 -28 -25 -27 0 -41 6 -50 20 -7
12 -24 25 -39 31 -54 20 19 39 142 35 66 -2 103 -8 138 -24z m521 -9 c7 -8
-92 -31 -136 -32 -16 -1 -31 -9 -38 -20 -14 -28 -13 -31 13 -32 21 -1 20 -2
-5 -12 -18 -7 -32 -24 -43 -53 -16 -41 -41 -72 -50 -62 -3 3 2 21 10 41 19 46
19 47 -2 47 -14 1 -12 5 10 21 15 11 27 30 27 41 0 18 -4 19 -35 14 -19 -4
-35 -5 -35 -2 0 13 53 38 97 46 62 10 178 12 187 3z m133 -50 c-11 -24 -12
-31 -4 -20 14 17 37 23 37 10 0 -3 -8 -15 -17 -25 -16 -18 -16 -18 3 -12 19 7
19 7 0 -14 -19 -22 -19 -22 2 -22 26 0 28 -12 7 -30 -21 -17 -45 -5 -45 22 -1
21 -2 22 -14 6 -18 -24 -30 -23 -23 3 5 19 4 20 -12 5 -23 -21 -31 -20 -31 2
-1 16 -1 16 -14 0 -18 -24 -30 -23 -23 3 6 21 5 21 -19 -2 -20 -19 -27 -21
-34 -10 -5 9 -2 23 7 38 12 18 18 21 24 11 6 -10 12 -8 23 7 12 15 18 17 24 7
5 -7 16 -10 25 -6 12 4 17 1 17 -11 0 -26 18 -8 31 33 15 49 29 66 42 53 8 -8
5 -23 -6 -48z m-924 17 c16 -12 24 -27 20 -36 -4 -12 -1 -13 21 -4 28 10 51 5
78 -18 16 -13 18 -13 24 3 4 10 2 27 -5 38 -17 27 0 37 65 37 37 0 59 -6 78
-21 50 -39 27 -93 -53 -127 -44 -20 -50 -26 -56 -61 -5 -32 -11 -40 -33 -44
-35 -7 -38 -3 -24 28 l12 25 -28 -20 c-69 -51 -132 -26 -132 53 l-1 42 -19
-38 c-15 -31 -17 -43 -8 -69 10 -27 8 -33 -13 -49 -13 -10 -29 -19 -36 -19 -7
0 -21 41 -34 100 -13 55 -28 100 -34 100 -6 0 -19 6 -30 14 -17 12 -12 16 55
50 83 41 116 45 153 16z m1057 6 c0 -3 -4 -8 -10 -11 -5 -3 -10 -1 -10 4 0 6
5 11 10 11 6 0 10 -2 10 -4z m-686 -19 c16 -12 16 -16 -4 -70 -22 -58 -26 -62
-47 -49 -9 6 -8 22 4 70 8 34 19 62 22 62 4 0 15 -6 25 -13z m669 -64 c-14
-18 -31 -33 -39 -33 -14 0 -41 40 -27 40 4 0 2 4 -5 9 -11 6 -7 13 13 29 26
21 29 21 55 5 l28 -16 -25 -34z m-363 10 l-10 -28 23 28 c29 34 35 34 32 -1
-2 -36 -13 -54 -28 -49 -7 2 -20 0 -29 -5 -15 -7 -18 -4 -18 17 0 30 16 65 30
65 6 0 6 -11 0 -27z m-354 -117 c8 -21 -15 -58 -34 -54 -9 2 -18 11 -20 21 -7
36 42 65 54 33z"/>
<path d="M984 3135 c-8 -32 1 -43 24 -29 22 14 22 48 0 52 -12 2 -19 -5 -24
-23z m36 1 c0 -3 -4 -8 -10 -11 -5 -3 -10 -1 -10 4 0 6 5 11 10 11 6 0 10 -2
10 -4z"/>
<path d="M695 3140 c-7 -11 4 -60 15 -60 15 0 42 40 37 55 -7 17 -42 21 -52 5z
m35 -20 c0 -5 -4 -10 -10 -10 -5 0 -10 5 -10 10 0 6 5 10 10 10 6 0 10 -4 10
-10z"/>
<path d="M816 3098 c-20 -28 -20 -42 -1 -58 24 -20 67 13 63 48 -4 36 -40 42
-62 10z m48 -6 c9 -15 -12 -35 -29 -28 -14 5 -15 9 -5 21 14 17 26 19 34 7z"/>
<path d="M916 3043 c-6 -14 -5 -15 5 -6 7 7 10 15 7 18 -3 3 -9 -2 -12 -12z"/>
<path d="M1780 3134 c0 -17 22 -14 28 4 2 7 -3 12 -12 12 -9 0 -16 -7 -16 -16z"/>
<path d="M2116 3264 c-12 -11 -16 -36 -16 -90 0 -91 10 -114 50 -114 34 0 47
19 50 70 6 110 -7 150 -50 150 -10 0 -26 -7 -34 -16z m44 -94 c0 -40 -4 -70
-10 -70 -6 0 -10 30 -10 70 0 40 4 70 10 70 6 0 10 -30 10 -70z"/>
<path d="M1980 3205 c0 -50 3 -65 14 -65 8 0 18 5 21 10 4 6 11 8 16 5 12 -8
12 -52 -1 -60 -5 -3 -10 1 -10 9 0 9 -9 16 -20 16 -27 0 -27 -45 -1 -60 28
-14 38 -13 61 10 14 14 20 33 20 63 0 46 -13 67 -43 67 -28 0 -14 25 16 28 19
2 27 9 27 23 0 16 -7 19 -50 19 l-50 0 0 -65z"/>
<path d="M2230 3100 c0 -5 -16 -28 -36 -50 l-36 -40 41 0 41 0 0 50 c0 28 -2
50 -5 50 -3 0 -5 -4 -5 -10z"/>
<path d="M826 2909 c-89 -6 -123 -12 -137 -25 -22 -20 -24 -39 -6 -51 15 -9
173 -5 292 8 98 11 128 26 109 57 -13 21 -80 24 -258 11z m187 -8 c10 -1 17
-9 17 -21 0 -12 -7 -20 -17 -21 -10 0 -45 -2 -78 -4 -33 -3 -92 -7 -132 -9
-40 -3 -75 -1 -78 3 -11 19 7 40 33 39 32 -2 195 12 200 17 2 1 11 2 20 0 9
-2 25 -4 35 -4z"/>
<path d="M1094 2848 l-19 -23 23 19 c21 18 27 26 19 26 -2 0 -12 -10 -23 -22z"/>
<path d="M1038 2815 c-15 -9 -51 -22 -80 -29 -29 -8 -43 -15 -31 -15 27 -1
130 36 138 50 8 12 5 11 -27 -6z"/>
<path d="M2005 1085 c-161 -23 -255 -36 -745 -100 -344 -46 -333 -44 -324 -64
37 -87 45 -123 49 -204 3 -50 6 -92 8 -94 4 -3 351 47 597 86 69 11 208 31
310 46 102 14 215 30 253 36 l67 11 0 154 0 154 -27 -1 c-16 0 -100 -11 -188
-24z m-125 -104 c0 -65 -9 -89 -27 -78 -5 3 -7 37 -5 76 3 53 7 71 18 71 11 0
14 -16 14 -69z m-55 39 c3 -10 2 -28 -4 -38 -6 -11 -8 -22 -5 -24 3 -3 7 -17
10 -32 3 -21 1 -26 -16 -26 -13 0 -20 7 -20 20 0 11 -4 20 -10 20 -5 0 -10
-11 -10 -25 0 -18 -5 -25 -20 -25 -18 0 -20 7 -20 69 0 68 1 70 28 74 54 8 61
7 67 -13z m-110 -66 c0 -58 -3 -69 -18 -72 -13 -3 -22 6 -30 27 -15 41 -24 39
-19 -4 3 -28 1 -35 -12 -35 -14 0 -16 10 -14 72 3 83 19 98 45 41 l17 -38 4
43 c2 28 7 42 15 39 8 -2 12 -28 12 -73z m-115 43 c0 -7 -15 -19 -32 -27 l-33
-13 33 -4 c37 -5 39 -26 4 -31 -31 -5 -28 -32 3 -32 43 0 30 -27 -16 -32 -22
-2 -42 -2 -45 1 -2 2 -4 35 -4 72 0 66 1 68 28 72 52 8 62 7 62 -6z m-110 -72
c0 -60 -3 -75 -15 -75 -9 0 -15 9 -15 25 0 35 -28 33 -32 -2 -2 -17 -10 -29
-21 -31 -16 -3 -18 4 -15 70 2 57 6 73 18 73 9 0 15 -9 14 -22 -1 -16 4 -23
17 -23 13 0 19 7 19 23 0 13 3 27 7 30 17 18 23 1 23 -68z m583 -32 c7 19 27
23 27 6 0 -5 -4 -7 -10 -4 -5 3 -10 -1 -10 -10 0 -23 -24 -13 -27 11 -3 19 -3
19 5 0 8 -18 9 -18 15 -3z m-68 -2 c3 -5 1 -12 -5 -16 -5 -3 -10 1 -10 9 0 18
6 21 15 7z m-135 -8 c0 -5 -7 -17 -15 -27 -15 -20 -15 -20 -15 0 0 12 3 24 7
27 9 9 23 9 23 0z m-173 -29 c-3 -3 -12 -4 -19 -1 -8 3 -5 6 6 6 11 1 17 -2
13 -5z m124 -17 c-10 -9 -11 -8 -5 6 3 10 9 15 12 12 3 -3 0 -11 -7 -18z
m-168 -7 c-3 -11 -7 -20 -9 -20 -2 0 -4 9 -4 20 0 11 4 20 9 20 5 0 7 -9 4
-20z m87 11 c0 -6 -4 -12 -8 -15 -5 -3 -9 1 -9 9 0 8 4 15 9 15 4 0 8 -4 8 -9z
m-180 -16 c-9 -11 -9 -15 -1 -15 7 0 9 -4 6 -10 -11 -18 -25 -10 -25 15 0 16
6 25 16 25 14 0 14 -3 4 -15z m-56 -4 c-8 -8 -44 -8 -44 1 0 4 11 7 25 6 13
-1 22 -4 19 -7z m-74 -11 c0 -5 -2 -10 -4 -10 -3 0 -8 5 -11 10 -3 6 -1 10 4
10 6 0 11 -4 11 -10z m-70 -25 c0 -18 -4 -23 -15 -19 -25 10 -19 33 13 43 1 1
2 -10 2 -24z m37 3 c-1 -21 -21 -19 -25 4 -2 8 4 15 12 15 8 0 14 -9 13 -19z
m400 0 c-3 -8 -6 -5 -6 6 -1 11 2 17 5 13 3 -3 4 -12 1 -19z m43 2 c0 -11 -6
-20 -13 -20 -7 0 -13 9 -13 20 0 11 6 20 13 20 7 0 13 -9 13 -20z m-103 -27
c-3 -10 -5 -4 -5 12 0 17 2 24 5 18 2 -7 2 -21 0 -30z m40 5 c-3 -7 -5 -2 -5
12 0 14 2 19 5 13 2 -7 2 -19 0 -25z m-620 -25 c-3 -10 -5 -4 -5 12 0 17 2 24
5 18 2 -7 2 -21 0 -30z m113 33 c0 -2 -7 -9 -15 -16 -13 -11 -14 -10 -9 4 5
14 24 23 24 12z m267 -43 c-3 -10 -5 -4 -5 12 0 17 2 24 5 18 2 -7 2 -21 0
-30z m51 28 c5 -1 -26 -31 -32 -31 -3 0 -6 9 -6 19 0 17 7 19 38 12z m-84 -26
c-6 -15 -34 -9 -34 7 0 5 5 6 10 3 6 -3 10 -1 10 5 0 6 4 9 10 5 5 -3 7 -12 4
-20z m-67 -7 c-3 -8 -6 -5 -6 6 -1 11 2 17 5 13 3 -3 4 -12 1 -19z"/>
<path d="M1770 990 c0 -13 5 -20 13 -17 6 2 12 10 12 17 0 7 -6 15 -12 18 -8
2 -13 -5 -13 -18z"/>
<path d="M2243 793 c-13 -2 -23 -12 -23 -21 0 -12 -2 -14 -8 -4 -5 7 -22 10
-43 8 -19 -2 -41 -4 -49 -5 -12 -1 -13 -3 -1 -10 9 -6 10 -11 2 -15 -6 -4 -11
-11 -11 -16 0 -14 44 3 62 24 10 12 17 16 18 9 0 -6 -6 -13 -12 -16 -10 -4
-10 -7 0 -18 6 -7 12 -18 12 -23 0 -7 -3 -6 -8 1 -4 6 -19 9 -34 6 -32 -6 -47
-33 -18 -33 11 0 20 3 20 8 0 4 21 8 45 8 54 2 61 6 45 31 -10 16 -11 16 -6 1
7 -22 -10 -24 -18 -3 -3 8 -1 15 4 15 6 0 10 10 11 23 1 21 1 21 9 -3 7 -21 8
-22 9 -5 1 17 3 17 11 5 8 -12 10 -9 10 13 0 15 -1 26 -2 26 -2 -1 -13 -4 -25
-6z"/>
<path d="M2020 737 c0 -21 4 -23 31 -19 19 3 26 8 19 12 -6 4 -10 11 -8 16 1
5 -7 10 -19 12 -18 3 -23 -1 -23 -21z"/>
<path d="M1893 742 c-27 -3 -33 -7 -33 -28 0 -22 3 -23 38 -18 44 7 40 4 33
29 -5 16 -13 19 -38 17z"/>
<path d="M1940 731 c0 -10 7 -21 15 -25 11 -4 15 1 15 19 0 16 -6 25 -15 25
-8 0 -15 -9 -15 -19z"/>
<path d="M2252 729 c2 -7 10 -15 17 -17 8 -3 12 1 9 9 -2 7 -10 15 -17 17 -8
3 -12 -1 -9 -9z"/>
<path d="M1790 727 c-3 -3 -27 -8 -55 -12 -47 -6 -74 -15 -45 -15 10 0 10 -3
0 -15 -18 -22 -11 -24 40 -15 70 14 80 12 80 -12 0 -12 3 -18 7 -14 11 10 12
86 2 86 -5 0 -9 -10 -10 -22 l-1 -23 -7 23 c-3 13 -8 21 -11 19z m-50 -37 c0
-5 -2 -10 -4 -10 -3 0 -8 5 -11 10 -3 6 -1 10 4 10 6 0 11 -4 11 -10z"/>
<path d="M1641 693 c0 -7 -9 -13 -18 -13 -17 -1 -17 -1 0 -11 22 -13 30 -7 24
18 -3 10 -5 12 -6 6z"/>
<path d="M2020 685 c0 -8 7 -15 15 -15 8 0 15 7 15 15 0 8 -7 15 -15 15 -8 0
-15 -7 -15 -15z"/>
<path d="M1503 682 c-15 -2 -23 -10 -23 -22 0 -15 7 -19 41 -18 29 0 37 3 28
10 -11 7 -11 11 -1 15 6 2 12 9 12 13 0 9 -11 9 -57 2z"/>
<path d="M1895 680 c-4 -6 -12 -10 -18 -9 -27 3 -37 -2 -37 -18 0 -15 2 -16
10 -3 7 11 10 12 10 2 0 -10 4 -9 16 3 12 11 20 13 29 5 9 -8 14 -6 19 6 3 8
6 18 6 20 0 9 -29 4 -35 -6z"/>
<path d="M1940 674 c0 -17 22 -14 28 4 2 7 -3 12 -12 12 -9 0 -16 -7 -16 -16z"/>
<path d="M2070 679 c0 -5 5 -7 10 -4 6 3 10 8 10 11 0 2 -4 4 -10 4 -5 0 -10
-5 -10 -11z"/>
<path d="M830 640 c0 -25 4 -39 10 -35 6 3 10 19 10 35 0 16 -4 32 -10 35 -6
4 -10 -10 -10 -35z"/>
<path d="M1461 663 c0 -13 -5 -23 -11 -23 -5 0 -10 -5 -10 -12 0 -8 6 -7 16 4
9 8 14 24 11 34 -4 16 -5 15 -6 -3z"/>
<path d="M1420 655 c0 -9 6 -12 15 -9 8 4 15 10 15 15 0 5 -7 9 -15 9 -8 0
-15 -7 -15 -15z"/>
<path d="M1328 655 c-4 -4 -36 -9 -85 -14 -7 0 -13 -10 -13 -21 0 -15 7 -20
26 -20 22 0 25 2 14 15 -7 9 -8 15 -2 15 5 0 12 -7 16 -15 4 -12 11 -13 32 -4
15 5 33 8 40 5 8 -3 16 -1 19 4 4 6 1 10 -5 10 -7 0 -10 7 -6 15 3 10 -1 15
-13 15 -10 0 -20 -2 -23 -5z"/>
<path d="M1750 652 c0 -5 7 -9 15 -9 8 0 12 4 9 9 -3 4 -9 8 -15 8 -5 0 -9 -4
-9 -8z"/>
<path d="M1675 640 c-3 -5 -1 -10 4 -10 6 0 11 5 11 10 0 6 -2 10 -4 10 -3 0
-8 -4 -11 -10z"/>
<path d="M1103 623 c-15 -3 -23 -12 -23 -25 0 -17 5 -19 38 -14 20 3 39 5 42
6 3 0 6 9 7 20 2 20 -12 23 -64 13z m57 -7 c0 -3 -4 -8 -10 -11 -5 -3 -10 -1
-10 4 0 6 5 11 10 11 6 0 10 -2 10 -4z"/>
<path d="M1018 612 c-23 -3 -28 -8 -27 -30 l1 -27 8 25 c6 19 8 20 9 6 1 -14
6 -17 24 -12 12 3 25 6 30 6 4 0 7 8 7 18 0 19 -4 20 -52 14z"/>
<path d="M1180 605 c0 -8 5 -15 10 -15 6 0 10 7 10 15 0 8 -4 15 -10 15 -5 0
-10 -7 -10 -15z"/>
<path d="M1462 613 c-28 -5 -19 -23 12 -23 13 0 23 6 23 15 0 8 -3 14 -6 14
-3 -1 -16 -4 -29 -6z"/>
<path d="M1400 598 c0 -12 7 -18 23 -17 15 0 17 2 7 6 -8 3 -18 11 -22 17 -5
7 -8 4 -8 -6z"/>
<path d="M905 591 c-11 -5 -24 -6 -28 -4 -19 11 -57 -8 -57 -28 0 -18 5 -20
38 -15 20 3 41 5 45 6 5 0 5 6 1 13 -6 10 -4 10 7 0 20 -20 29 -16 27 12 -3
27 -3 27 -33 16z"/>
<path d="M1365 589 c-9 -14 -2 -20 14 -10 8 6 9 11 3 15 -6 3 -14 1 -17 -5z"/>
<path d="M1245 580 c-4 -6 -11 -7 -17 -4 -7 4 -8 2 -4 -5 6 -9 11 -9 22 0 14
11 18 19 10 19 -3 0 -8 -5 -11 -10z"/>
<path d="M1270 576 c0 -7 7 -13 15 -13 8 0 15 4 15 8 0 4 -7 9 -15 13 -9 3
-15 0 -15 -8z"/>
<path d="M1310 580 c0 -5 4 -10 9 -10 6 0 13 5 16 10 3 6 -1 10 -9 10 -9 0
-16 -4 -16 -10z"/>
<path d="M745 573 c-63 -8 -74 -13 -72 -33 1 -18 7 -20 42 -16 22 2 50 5 61 5
17 1 20 6 16 26 -2 14 -7 24 -11 24 -3 -1 -19 -4 -36 -6z"/>
<path d="M1176 557 c3 -10 9 -15 12 -12 3 3 0 11 -7 18 -10 9 -11 8 -5 -6z"/>
<path d="M1119 550 c-19 -13 -8 -18 21 -10 19 4 21 7 9 12 -9 3 -22 2 -30 -2z"/>
<path d="M632 530 c0 -14 2 -19 5 -12 2 6 2 18 0 25 -3 6 -5 1 -5 -13z"/>
<path d="M551 515 c0 -16 5 -39 10 -50 7 -16 8 -14 4 9 -5 24 -4 27 7 18 11
-9 18 -7 32 9 17 20 16 20 -6 17 -13 -2 -28 4 -35 12 -10 13 -12 10 -12 -15z"/>
<path d="M882 532 c-7 -2 -12 -7 -12 -10 0 -8 58 -8 65 0 7 7 -37 16 -53 10z"/>
<path d="M950 531 c0 -4 11 -6 25 -3 14 2 25 6 25 8 0 2 -11 4 -25 4 -14 0
-25 -4 -25 -9z"/>
<path d="M835 520 c-3 -5 1 -10 9 -10 9 0 16 5 16 10 0 6 -4 10 -9 10 -6 0
-13 -4 -16 -10z"/>
<path d="M1028 523 c6 -2 18 -2 25 0 6 3 1 5 -13 5 -14 0 -19 -2 -12 -5z"/>
<path d="M775 510 c-3 -5 -1 -10 4 -10 6 0 11 5 11 10 0 6 -2 10 -4 10 -3 0
-8 -4 -11 -10z"/>
<path d="M2712 511 c-7 -4 -15 -25 -16 -46 -6 -69 58 -106 122 -71 15 8 45 18
67 23 39 8 38 8 -24 11 -44 2 -72 9 -88 22 -14 11 -19 20 -12 22 8 3 6 11 -7
26 -21 24 -23 25 -42 13z"/>
<path d="M691 495 c-1 -16 -3 -17 -11 -5 -5 8 -11 12 -14 9 -9 -9 11 -31 26
-27 11 2 13 9 7 23 l-8 20 0 -20z"/>
<path d="M778 483 c7 -3 16 -2 19 1 4 3 -2 6 -13 5 -11 0 -14 -3 -6 -6z"/>
</g>
</svg>
